<svg width="20" height="20" viewBox="0 0 20 20" fill="none" xmlns="http://www.w3.org/2000/svg">
<g id="email">
<path id="Vector" d="M17.8301 3.32031H2.16992C1.24727 3.32031 0.5 4.07222 0.5 4.99023V15.0098C0.5 15.9332 1.25276 16.6797 2.16992 16.6797H17.8301C18.745 16.6797 19.5 15.9364 19.5 15.0098V4.99023C19.5 4.07386 18.7557 3.32031 17.8301 3.32031ZM17.5962 4.43359C17.255 4.77296 11.3835 10.6135 11.1808 10.8152C10.8654 11.1306 10.4461 11.3043 10 11.3043C9.55395 11.3043 9.13461 11.1306 8.81814 10.8141C8.6818 10.6785 2.87511 4.90243 2.40379 4.43359H17.5962ZM1.61328 14.7832V5.21753L6.42407 10.003L1.61328 14.7832ZM2.40449 15.5664L7.21338 10.7881L8.03198 11.6024C8.55767 12.1281 9.25659 12.4176 10 12.4176C10.7434 12.4176 11.4423 12.1281 11.967 11.6034L12.7866 10.7881L17.5955 15.5664H2.40449ZM18.3867 14.7832L13.5759 10.003L18.3867 5.21753V14.7832Z" fill="#691F33" stroke="#691F33" stroke-width="0.2"/>
</g>
</svg>
