<svg width="21" height="20" viewBox="0 0 21 20" fill="none" xmlns="http://www.w3.org/2000/svg">
<g id="phone">
<path id="Vector" d="M18.163 15.9469L17.4733 16.6418C16.6236 17.5039 15.468 17.9924 14.2601 18C13.9076 18.0007 13.5563 17.9581 13.2141 17.8731C11.8831 17.5189 10.6172 16.9531 9.46438 16.1971C8.41528 15.5231 7.44324 14.7353 6.56585 13.8477C5.75878 13.0411 5.03397 12.1556 4.40223 11.2044C3.70052 10.1657 3.1455 9.03441 2.75299 7.84276C2.49471 7.04482 2.46244 6.19048 2.65979 5.37518C2.85714 4.55989 3.27635 3.81576 3.87056 3.22594L4.67283 2.42026C4.95368 2.15054 5.3273 2 5.7159 2C6.1045 2 6.47812 2.15054 6.75896 2.42026L9.29213 4.96361C9.56809 5.24106 9.7231 5.61717 9.7231 6.00932C9.7231 6.40147 9.56809 6.77759 9.29213 7.05503L7.80501 8.55147C7.75143 8.6049 7.71876 8.67588 7.71296 8.75148C7.70716 8.82708 7.72862 8.90226 7.77342 8.96329C8.28265 9.66525 8.84626 10.3257 9.45902 10.9386C10.143 11.6281 10.8866 12.2553 11.681 12.8127C11.7427 12.8561 11.8176 12.8763 11.8926 12.8698C11.9676 12.8632 12.0379 12.8303 12.0911 12.7768L13.5425 11.3193C13.6793 11.1815 13.8419 11.0722 14.0209 10.9976C14.1999 10.9231 14.3918 10.8847 14.5855 10.8847C14.7793 10.8847 14.9712 10.9231 15.1502 10.9976C15.3292 11.0722 15.4917 11.1815 15.6286 11.3193L18.1618 13.8543C18.2987 13.9915 18.4074 14.1546 18.4816 14.3341C18.5558 14.5136 18.5941 14.706 18.5942 14.9003C18.5943 15.0947 18.5563 15.2871 18.4823 15.4667C18.4083 15.6463 18.2998 15.8094 18.163 15.9469V15.9469Z" stroke="#691F33" stroke-width="1.4"/>
</g>
</svg>
